<svg width="20" height="20" viewBox="0 0 20 20" fill="none" xmlns="http://www.w3.org/2000/svg">
<path d="M14.5719 16.0021C10.5749 19.1856 4.98775 18.3047 2.02832 14.6535C-0.828048 11.1285 -0.649408 6.04318 2.44931 2.82468C5.6511 -0.50057 10.6849 -0.944478 14.3339 1.78328C15.6412 2.76038 16.6175 4.00345 17.2533 5.50811C17.893 7.02152 18.0872 8.59612 17.8655 10.22C17.6444 11.8365 16.9991 13.2768 15.9491 14.621C16.0341 14.6766 16.1247 14.7166 16.1896 14.7815C17.3439 15.9303 18.4938 17.0834 19.6481 18.2322C19.9217 18.5044 20.0579 18.8216 19.9767 19.2037C19.8155 19.9642 18.9098 20.2576 18.3289 19.7357C18.0566 19.4915 17.8061 19.2224 17.5475 18.964C16.5994 18.0168 15.6518 17.0691 14.7037 16.122C14.6643 16.0845 14.6231 16.0495 14.5719 16.0021ZM15.9598 8.98633C15.9698 5.12664 12.8523 2.00617 8.98218 2.00055C5.12267 1.99493 2.00771 5.09043 1.99085 8.94762C1.97398 12.8167 5.08519 15.9459 8.96718 15.964C12.8111 15.9821 15.9498 12.8498 15.9598 8.98633Z" fill="#3D3D3D"/>
</svg>
