<svg width="19" height="14" viewBox="0 0 19 14" fill="none" xmlns="http://www.w3.org/2000/svg">
<path fill-rule="evenodd" clip-rule="evenodd" d="M15.187 4.43629L15.1897 4.43697C15.1897 4.43696 15.1893 4.43685 15.1884 4.43664C15.188 4.43655 15.1876 4.43643 15.187 4.43629ZM4.33063 4.36309C6.92753 4.20176 11.7651 4.20176 14.362 4.36309L14.3627 4.37065C14.4253 5.00431 14.4505 5.84979 14.4505 7.0292C14.4505 8.1941 14.4259 9.03981 14.3647 9.67882C11.7129 9.78425 6.98127 9.78426 4.32901 9.67886C4.2671 9.04618 4.24209 8.2031 4.24209 7.0292C4.24209 5.84979 4.26733 5.00431 4.32988 4.37065L4.33063 4.36309ZM15.264 9.62483C15.264 9.62485 15.2624 9.62525 15.2589 9.62592L15.264 9.62483ZM3.50294 9.62144L3.50564 9.62212C3.50382 9.62169 3.50293 9.62145 3.50294 9.62144ZM0 7.0292C0 11.8581 0.38943 13.6495 3.42698 13.8832C6.23087 14.0389 12.4617 14.0389 15.2656 13.8832C18.3032 13.7274 18.6926 11.8581 18.6926 7.0292C18.6926 2.20028 18.3032 0.408901 15.2656 0.175243C12.4617 -0.0584144 6.23087 -0.0584144 3.42698 0.175243C0.38943 0.408901 0 2.20028 0 7.0292ZM3.50294 4.43697C3.50293 4.43696 3.50385 4.43671 3.50574 4.43627L3.50294 4.43697ZM9.79629 8.75138C8.51606 9.39149 7.00976 8.46055 7.00976 7.02921C7.00976 5.59787 8.51606 4.66692 9.79629 5.30704C11.2154 6.01661 11.2154 8.0418 9.79629 8.75138Z" fill="#46A358" fill-opacity="0.6"/>
</svg>
