<svg width="68" height="87" viewBox="0 0 68 87" fill="none" xmlns="http://www.w3.org/2000/svg">
<g clip-path="url(#clip0_11_3058)">
<path d="M7.249 40.7766C24.0217 39.0238 40.9384 41.7144 57.67 39.29C58.4516 39.1753 58.1184 37.9918 57.3409 38.1064C40.7286 40.5104 23.9065 37.8075 7.249 39.548C6.46734 39.6299 6.45912 40.8585 7.249 40.7766Z" fill="#727272"/>
<path d="M7.08459 39.5726C5.44722 40.0804 5.65292 42.21 6.52097 43.3403C7.94441 45.1913 11.141 45.2323 13.2268 45.0357C14.0125 44.962 14.0166 43.7334 13.2268 43.8071C11.8774 43.9341 10.4786 43.9218 9.16626 43.5368C8.48334 43.3362 7.76339 43.0536 7.37256 42.4147C7.17098 42.083 6.78426 40.9527 7.4137 40.7602C8.17068 40.5227 7.84567 39.3351 7.08459 39.5726Z" fill="#727272"/>
<path d="M54.7821 39.675C55.6501 39.6217 56.4894 39.4743 57.3533 39.3596C58.7233 39.1753 59.4268 39.5439 59.6654 40.9773C59.8628 42.169 59.11 42.5171 58.0486 42.8529C57.5467 43.0126 57.0201 43.1109 56.5017 43.2133C55.1153 43.4836 53.7248 43.6187 52.3137 43.6679C51.5238 43.6965 51.5197 44.9251 52.3137 44.8964C54.7204 44.8104 61.4796 44.7203 61.2164 40.9322C61.1505 39.9862 60.2331 38.6798 59.3733 38.2539C58.0897 37.615 56.0903 38.3645 54.778 38.4464C53.9922 38.4955 53.9881 39.7241 54.7821 39.675Z" fill="#727272"/>
<path d="M9.05503 44.7736C8.88636 47.3741 5.92429 48.8443 4.35275 50.6298C3.11855 52.0345 2.14765 53.6521 1.44416 55.3762C-0.069782 59.0702 -0.357761 63.2105 0.411554 67.1051C1.99544 75.095 8.05945 81.6884 15.6333 84.5182C16.3779 84.7967 16.6988 83.6091 15.9624 83.3347C8.09647 80.3943 1.98309 73.0269 1.30017 64.5783C0.975169 60.5649 1.82676 56.3878 4.07711 53.0092C5.94486 50.208 10.0547 48.4143 10.2892 44.7736C10.3386 43.9873 9.1044 43.9873 9.05503 44.7736Z" fill="#727272"/>
<path d="M55.823 44.2494C55.823 47.4806 58.1803 49.5077 60.5787 51.3138C62.6398 52.8618 64.236 54.3688 65.2522 56.7973C66.1367 58.9064 66.6263 61.1834 66.7373 63.4645C67.1405 71.8557 62.2449 79.6449 54.7204 83.3102C54.0087 83.6583 54.6299 84.7189 55.3416 84.3708C62.3313 80.9677 67.2598 74.0507 67.918 66.3025C68.2513 62.3833 67.5684 58.0669 65.569 54.6309C63.368 50.8428 57.0571 49.1064 57.053 44.2494C57.0571 43.459 55.823 43.459 55.823 44.2494Z" fill="#727272"/>
<path d="M15.267 83.6172C14.4689 85.3823 15.9006 86.9058 17.6778 86.9877C19.6073 87.0819 21.6437 86.6355 23.5773 86.5536C25.8194 86.4553 28.0615 86.4512 30.3036 86.4839C38.6715 86.6109 47.0352 87.2457 55.366 86.1154C55.6499 86.0785 55.7939 85.7673 55.8185 85.5215C55.8844 84.8335 55.8268 84.3257 55.6252 83.6787C55.3907 82.9251 54.2018 83.2487 54.4362 84.0063C54.6461 84.5018 54.6954 85.0096 54.5843 85.5215C54.7366 85.325 54.8847 85.1284 55.0369 84.9277C48.5409 85.8082 41.9873 85.5871 35.4543 85.3823C32.2866 85.284 29.1147 85.1939 25.9469 85.2472C24.4988 85.2717 23.0507 85.3291 21.6026 85.4274C20.8127 85.4806 20.0269 85.5543 19.2411 85.6321C18.6611 85.6895 15.4439 86.185 16.3284 84.2274C16.6534 83.519 15.592 82.8965 15.267 83.6172Z" fill="#727272"/>
<path d="M7.08034 51.2237C2.05306 57.3789 1.66223 65.9708 6.17527 72.5232C6.39742 72.8467 6.93224 72.5396 6.71008 72.212C2.36161 65.9011 2.66193 57.6041 7.52054 51.6537C7.76326 51.3547 7.33129 50.9165 7.08034 51.2237Z" fill="#727272"/>
<path d="M7.41358 74.8042C7.81675 75.3858 8.27751 75.9222 8.79176 76.4096C9.07974 76.6799 9.51582 76.2499 9.22784 75.9755C8.75062 75.525 8.32277 75.0336 7.94428 74.4971C7.72212 74.1736 7.18731 74.4766 7.41358 74.8042Z" fill="#727272"/>
<path d="M10.8652 78.3385C11.2643 78.3385 11.2643 77.7242 10.8652 77.7242C10.4662 77.7242 10.4662 78.3385 10.8652 78.3385Z" fill="#727272"/>
<path d="M54.6297 44.2822C54.3129 45.4616 54.0414 46.6492 54.5062 47.8287C54.9382 48.9221 55.8145 49.9091 56.5591 50.8141C58.3446 52.9764 61.9978 55.1592 62.1706 58.1734C62.1912 58.5665 62.8083 58.5706 62.7877 58.1734C62.6602 55.9169 60.9899 54.4712 59.4512 53.0051C58.4598 52.0591 57.5259 51.0558 56.6702 49.9828C56.0942 49.2579 55.4442 48.4921 55.111 47.6198C54.7037 46.5591 54.9382 45.5148 55.2221 44.4501C55.3249 44.0651 54.7284 43.9013 54.6297 44.2822Z" fill="#727272"/>
<path d="M62.438 59.5986C62.5244 60.3849 62.6108 61.1711 62.6972 61.9574C62.7383 62.3465 63.3595 62.3506 63.3143 61.9574C63.2279 61.1711 63.1415 60.3849 63.0551 59.5986C63.014 59.2095 62.3969 59.2054 62.438 59.5986Z" fill="#727272"/>
<path d="M62.4956 63.575C62.5409 63.8044 62.5039 64.0214 62.4175 64.2344C62.3557 64.39 62.4874 64.5702 62.6314 64.6111C62.8083 64.6603 62.9482 64.5497 63.0099 64.3982C63.1374 64.0788 63.1539 63.747 63.088 63.4112C63.0181 63.0263 62.4216 63.1901 62.4956 63.575Z" fill="#727272"/>
<path d="M35.7423 59.0824C37.2151 56.2977 39.9879 54.4753 43.2091 54.635C47.0434 54.8234 51.0751 58.1446 48.3887 62.0679C46.813 64.3654 43.9826 65.8519 41.8968 67.662C39.5806 69.6728 37.4619 71.8884 35.5078 74.2554C35.0059 74.8615 35.8739 75.7338 36.3799 75.1236C39.3585 71.5157 42.7278 68.4647 46.4304 65.6144C48.9029 63.706 51.6387 60.8106 50.1371 57.4566C48.8947 54.68 45.4636 53.3163 42.5715 53.3982C39.1651 53.4965 36.2442 55.495 34.6726 58.46C34.3065 59.1603 35.372 59.7827 35.7423 59.0824Z" fill="#727272"/>
<path d="M35.4504 58.1283C32.8133 55.1756 29.5222 52.1328 25.2518 52.354C22.0841 52.5178 19.3565 54.9094 18.8999 58.0587C18.3362 61.896 21.216 65.2623 24.0218 67.486C27.4693 70.2176 32.6693 71.1636 35.2488 74.8657C35.6972 75.5128 36.7669 74.8985 36.3143 74.2473C34.7058 71.9376 32.3649 70.7499 29.8801 69.5541C26.7205 68.0348 23.6063 66.155 21.5739 63.2228C19.3071 59.9589 19.6815 54.9667 24.0752 53.7709C28.3744 52.6038 31.9947 56.1093 34.5741 58.9965C35.1048 59.5903 35.977 58.718 35.4504 58.1283Z" fill="#727272"/>
</g>
<g clip-path="url(#clip1_11_3058)">
<path d="M31.472 12.629C30.2831 14.782 28.4689 16.507 26.1405 17.4C25.2314 17.7507 24.0343 17.7303 24.1536 16.4866C24.2276 15.7118 25.0668 15.039 25.6757 14.676C26.7123 14.0562 28.0411 13.8523 29.1559 13.3711C29.8799 13.0571 29.2547 12.001 28.5347 12.315C26.5437 13.1754 24.3634 13.3793 23.2321 15.4671C22.6274 16.5844 22.4299 18.1381 23.7916 18.7742C25.2684 19.4634 27.3006 18.3501 28.5265 17.5672C30.2296 16.4825 31.5666 15.0022 32.5333 13.2447C32.92 12.5556 31.8546 11.9357 31.472 12.629Z" fill="#46A358"/>
<path d="M28.8966 12.1191C27.3992 12.2822 25.9141 12.2904 24.429 12.0131C23.886 11.9111 23.3471 11.7725 22.8205 11.6053C22.3763 11.4748 21.9484 11.3158 21.5247 11.1241C20.8953 10.333 20.957 9.89262 21.7181 9.79476C23.9477 8.09024 27.4321 9.88039 29.6206 10.7082C30.3652 10.9895 30.6861 9.80699 29.9497 9.5297C28.045 8.80793 25.9552 7.72324 23.8613 7.95567C22.6601 8.08616 19.8915 8.60404 19.5707 10.1006C18.8302 13.5667 27.1071 13.5422 28.8966 13.3465C29.6782 13.2568 29.6864 12.0335 28.8966 12.1191Z" fill="#46A358"/>
<path d="M30.353 9.55004C28.4812 8.07796 26.8192 5.78624 26.9097 3.30286C26.9509 2.19778 27.6584 1.72884 28.6828 2.22633C29.2463 2.49954 29.6372 3.19684 29.9457 3.72288C30.6615 4.95437 30.9618 6.36121 31.2251 7.74358C31.3732 8.51428 32.5621 8.18806 32.414 7.41736C32.019 5.35399 31.4554 3.205 29.9169 1.66359C29.0078 0.754243 27.4939 -0.289671 26.4243 0.933666C23.9231 3.7922 27.1977 8.61623 29.4808 10.4145C30.0979 10.8998 30.9782 10.0394 30.353 9.55004Z" fill="#46A358"/>
<path d="M32.3849 7.75594C32.6564 5.79044 33.5203 2.05111 35.7993 1.41497C37.9179 0.827768 37.7081 4.20418 37.1157 5.32149C36.5192 6.44697 35.3468 7.50311 34.4952 8.44508C33.9687 9.02821 34.8367 9.89678 35.3673 9.30958C36.5891 7.95575 38.4156 6.40211 38.6789 4.49778C38.8846 3.02162 38.7735 0.791068 37.1321 0.138621C35.6347 -0.456736 34.1538 0.89709 33.3022 1.96139C32.0475 3.52727 31.4634 5.4683 31.1919 7.42156C31.0849 8.20042 32.2738 8.53479 32.3849 7.75594Z" fill="#46A358"/>
<path d="M35.4538 9.46465C36.8895 8.27393 39.5552 7.44614 41.3077 8.5186C43.5785 9.91321 40.3615 10.7492 39.3002 10.8185C38.1648 10.896 37.0294 10.8266 35.9022 10.6961C35.1165 10.6064 35.1206 11.8298 35.9022 11.9195C37.7452 12.1315 40.234 12.4047 41.9494 11.4995C43.0149 10.9367 43.7801 9.57475 43.126 8.42889C42.3937 7.14439 40.3327 6.83447 38.9957 6.87117C37.3379 6.92011 35.8446 7.55624 34.5858 8.60016C33.9728 9.1058 34.8491 9.9703 35.4538 9.46465Z" fill="#46A358"/>
<path d="M35.5853 11.8786C36.8565 12.3434 38.1194 13.0448 38.8434 14.2274C39.7485 15.7117 39.769 18.4438 37.1362 17.9341C34.8202 17.4855 33.1459 15.047 32.6728 12.9306C32.5 12.164 31.3111 12.4861 31.4839 13.2568C31.9035 15.1408 32.9525 16.8045 34.524 17.9585C35.7581 18.8679 37.9261 19.9526 39.3782 18.9209C40.8715 17.8607 40.8715 15.6668 40.1969 14.158C39.3988 12.3801 37.6998 11.3484 35.9227 10.696C35.1657 10.4269 34.8449 11.6094 35.5853 11.8786Z" fill="#46A358"/>
<path d="M23.1043 15.2469C19.5007 17.4 16.8432 19.7977 16.2137 24.112C15.5267 28.7974 16.6251 33.6949 17.6289 38.2579C17.7975 39.0286 18.9864 38.7024 18.8178 37.9317C17.9292 33.8947 17.02 29.7109 17.2957 25.5556C17.596 21.0252 19.9655 18.5499 23.7214 16.3072C24.4043 15.8994 23.7872 14.8391 23.1043 15.2469Z" fill="#46A358"/>
<path d="M39.008 13.8644C44.0474 14.2559 47.614 18.2684 48.9674 22.8641C50.4402 27.8675 49.6174 33.1361 48.8152 38.1762C48.6918 38.9469 49.8807 39.2772 50.0041 38.5024C50.9421 32.5896 51.8841 26.3098 49.4611 20.6091C47.6263 16.2907 43.817 13.0162 39.008 12.6411C38.214 12.5799 38.2181 13.8032 39.008 13.8644Z" fill="#46A358"/>
<path d="M24.3263 17.7832C18.2996 22.1302 20.2536 31.9576 21.4713 38.0662C21.6235 38.8369 22.8165 38.5107 22.6602 37.74C22.0226 34.543 21.4302 31.3093 21.4919 28.0389C21.5536 24.8582 22.1583 20.8497 24.9475 18.8394C25.5851 18.3786 24.9721 17.3184 24.3263 17.7832Z" fill="#46A358"/>
<path d="M31.0931 13.8277C28.8511 17.249 27.4031 21.074 26.8765 25.1273C26.6009 27.2518 26.5803 29.4049 26.8354 31.5335C27.111 33.8578 27.8638 36.0925 28.1435 38.4168C28.234 39.1875 29.4723 39.1997 29.3777 38.4168C28.8922 34.3594 27.6417 30.6242 27.9708 26.473C28.3122 22.1627 29.7932 18.0605 32.1627 14.4435C32.5905 13.7829 31.5251 13.1712 31.0931 13.8277Z" fill="#46A358"/>
<path d="M34.1088 17.6079C35.9477 20.6173 36.3344 24.0223 36.6552 27.4599C36.9885 31.0361 37.26 34.6164 37.4903 38.2008C37.5397 38.9837 38.7738 38.9878 38.7245 38.2008C38.4653 34.1434 38.1732 30.086 37.7536 26.0408C37.4245 22.8642 36.8692 19.7528 35.1743 16.9881C34.7629 16.3193 33.6933 16.931 34.1088 17.6079Z" fill="#46A358"/>
<path d="M39.724 18.1788C44.319 23.9081 44.4713 31.2237 44.3067 38.2049C44.2903 38.9919 45.5244 38.9919 45.5408 38.2049C45.7136 30.8404 45.4174 23.3291 40.5961 17.3143C40.1024 16.6986 39.2344 17.5712 39.724 18.1788Z" fill="#46A358"/>
<path d="M31.9532 19.6713C31.8833 19.9445 31.8174 20.2136 31.7475 20.4868C31.6529 20.8701 32.2453 21.0333 32.344 20.6499C32.4139 20.3767 32.4798 20.1076 32.5497 19.8344C32.6443 19.4551 32.0519 19.292 31.9532 19.6713Z" fill="#46A358"/>
<path d="M33.2861 21.7957C33.2861 22.1015 33.2861 22.4074 33.2861 22.7132C33.2861 23.1087 33.9032 23.1087 33.9032 22.7132C33.9032 22.4074 33.9032 22.1015 33.9032 21.7957C33.9032 21.4001 33.2861 21.4001 33.2861 21.7957Z" fill="#46A358"/>
<path d="M30.3074 23.7328C30.2745 24.1732 30.2375 24.6177 30.2046 25.0581C30.1758 25.4496 30.7929 25.4496 30.8217 25.0581C30.8546 24.6177 30.8916 24.1732 30.9245 23.7328C30.9533 23.3413 30.3362 23.3413 30.3074 23.7328Z" fill="#46A358"/>
<path d="M34.3145 25.8735C34.3145 26.2813 34.3145 26.6891 34.3145 27.0968C34.3145 27.4924 34.9315 27.4924 34.9315 27.0968C34.9315 26.6891 34.9315 26.2813 34.9315 25.8735C34.9315 25.478 34.3145 25.478 34.3145 25.8735Z" fill="#46A358"/>
<path d="M31.9487 28.1163C31.9487 28.5567 31.9487 29.0012 31.9487 29.4416C31.9487 29.8371 32.5658 29.8371 32.5658 29.4416C32.5658 29.0012 32.5658 28.5567 32.5658 28.1163C32.5658 27.7208 31.9487 27.7208 31.9487 28.1163Z" fill="#46A358"/>
<path d="M30.6118 32.6018C30.6118 33.2135 30.6118 33.8252 30.6118 34.4368C30.6118 34.8324 31.2289 34.8324 31.2289 34.4368C31.2289 33.8252 31.2289 33.2135 31.2289 32.6018C31.2289 32.2063 30.6118 32.2063 30.6118 32.6018Z" fill="#46A358"/>
<path d="M28.7816 28.6016C28.8515 29.0094 28.9256 29.4172 28.9955 29.8249C29.0613 30.2123 29.6578 30.0492 29.592 29.6618C29.522 29.254 29.448 28.8463 29.3781 28.4385C29.3081 28.0552 28.7116 28.2183 28.7816 28.6016Z" fill="#46A358"/>
<path d="M33.4996 34.6408C33.5325 35.0486 33.5696 35.4564 33.6025 35.8642C33.6354 36.2556 34.2525 36.2556 34.2196 35.8642C34.1866 35.4564 34.1496 35.0486 34.1167 34.6408C34.0838 34.2494 33.4626 34.2453 33.4996 34.6408Z" fill="#46A358"/>
<path d="M35.347 30.0533C35.3799 30.4611 35.4169 30.8689 35.4498 31.2766C35.4827 31.664 36.0998 31.6681 36.0669 31.2766C36.034 30.8689 35.9969 30.4611 35.964 30.0533C35.9311 29.6618 35.3141 29.6578 35.347 30.0533Z" fill="#46A358"/>
<path d="M42.4306 16.4009C42.9078 16.8128 43.385 17.2247 43.8622 17.6324C44.1625 17.8893 44.5986 17.4571 44.2982 17.2002C43.821 16.7883 43.3439 16.3765 42.8667 15.9687C42.5705 15.7118 42.1303 16.14 42.4306 16.4009Z" fill="#46A358"/>
<path d="M42.6901 19.8058C42.9575 20.2829 43.229 20.764 43.4964 21.2411C43.6898 21.5837 44.2246 21.2779 44.0312 20.9312C43.7638 20.4541 43.4923 19.973 43.2249 19.4959C43.0275 19.1533 42.4968 19.4632 42.6901 19.8058Z" fill="#46A358"/>
<path d="M45.1622 20.0056C45.4666 20.4174 45.771 20.8293 46.0754 21.2371C46.3058 21.5511 46.8447 21.2452 46.6102 20.9272C46.3058 20.5153 46.0014 20.1034 45.697 19.6957C45.4625 19.3858 44.9277 19.6875 45.1622 20.0056Z" fill="#46A358"/>
<path d="M46.6846 25.3394C46.7874 26.053 46.8944 26.7666 46.9972 27.4802C47.0548 27.8676 47.6472 27.7045 47.5937 27.3171C47.4909 26.6035 47.3839 25.8899 47.2811 25.1763C47.2194 24.7889 46.627 24.9561 46.6846 25.3394Z" fill="#46A358"/>
<path d="M44.6114 23.5085C44.7142 23.8469 44.8171 24.1895 44.9199 24.5279C45.0351 24.9031 45.6275 24.744 45.5164 24.3648C45.4136 24.0263 45.3107 23.6838 45.2079 23.3453C45.0927 22.9702 44.4962 23.1292 44.6114 23.5085Z" fill="#46A358"/>
<path d="M47.8816 31.1746C47.9268 31.6599 47.9186 32.1452 47.8404 32.6263C47.7787 33.0096 48.3711 33.1768 48.4369 32.7894C48.5233 32.2512 48.5521 31.717 48.5028 31.1746C48.4616 30.7873 47.8445 30.7832 47.8816 31.1746Z" fill="#46A358"/>
<path d="M46.4502 33.1115C46.4502 33.4867 46.4502 33.8578 46.4502 34.2329C46.4502 34.6285 47.0673 34.6285 47.0673 34.2329C47.0673 33.8578 47.0673 33.4867 47.0673 33.1115C47.0673 32.716 46.4502 32.716 46.4502 33.1115Z" fill="#46A358"/>
<path d="M47.0879 22.8928C47.2565 23.3006 47.4293 23.7084 47.598 24.1162C47.6638 24.2711 47.8037 24.3771 47.9764 24.3282C48.1204 24.2915 48.2562 24.1039 48.1904 23.953C48.0217 23.5453 47.8489 23.1375 47.6803 22.7297C47.6144 22.5747 47.4746 22.4687 47.3018 22.5177C47.1578 22.5544 47.0262 22.7419 47.0879 22.8928Z" fill="#46A358"/>
<path d="M45.9355 29.9513C45.9355 30.1878 45.9355 30.4284 45.9355 30.6649C45.9355 31.0605 46.5526 31.0605 46.5526 30.6649C46.5526 30.4284 46.5526 30.1878 46.5526 29.9513C46.5526 29.5558 45.9355 29.5558 45.9355 29.9513Z" fill="#46A358"/>
<path d="M47.1699 36.7816C47.1534 37.0712 47.0835 37.3485 46.9765 37.6176C46.9148 37.7725 47.0465 37.952 47.1905 37.9927C47.3673 38.0417 47.5072 37.9316 47.5689 37.7807C47.7006 37.4586 47.7664 37.1283 47.787 36.7816C47.8116 36.3861 47.1946 36.3902 47.1699 36.7816Z" fill="#46A358"/>
<path d="M21.2902 18.8842C21.0804 19.186 20.8706 19.4877 20.6567 19.7895C20.4305 20.1157 20.9653 20.4216 21.1915 20.0994C21.4013 19.7976 21.6111 19.4959 21.825 19.1941C22.0472 18.8679 21.5124 18.5621 21.2902 18.8842Z" fill="#46A358"/>
<path d="M19.5295 23.3452C19.4513 23.7163 19.3772 24.0874 19.2991 24.4625C19.2209 24.8458 19.8133 25.013 19.8956 24.6256C19.9737 24.2546 20.0478 23.8835 20.1259 23.5083C20.2041 23.125 19.6076 22.9619 19.5295 23.3452Z" fill="#46A358"/>
<path d="M19.332 21.1229C19.007 21.5511 18.7643 22.0241 18.5997 22.5338C18.4763 22.909 19.0728 23.068 19.1962 22.6969C19.3484 22.2361 19.5747 21.8202 19.8668 21.4328C20.1054 21.1148 19.5665 20.813 19.332 21.1229Z" fill="#46A358"/>
<path d="M18.0773 25.1802C18.0033 25.69 17.9251 26.1956 17.8511 26.7053C17.7935 27.0886 18.39 27.2558 18.4476 26.8684C18.5216 26.3587 18.5998 25.8531 18.6738 25.3434C18.7314 24.956 18.1349 24.7888 18.0773 25.1802Z" fill="#46A358"/>
<path d="M18.6944 28.1163C18.6409 28.626 18.6739 29.1276 18.7726 29.6292C18.8466 30.0165 19.4431 29.8534 19.3691 29.466C19.2827 29.0175 19.2662 28.5689 19.3156 28.1163C19.3485 27.7248 18.7314 27.7289 18.6944 28.1163Z" fill="#46A358"/>
<path d="M19.2003 31.9903C19.2332 32.2962 19.2702 32.602 19.3032 32.9078C19.3196 33.071 19.4307 33.2137 19.6117 33.2137C19.7639 33.2137 19.9408 33.075 19.9202 32.9078C19.8873 32.602 19.8503 32.2962 19.8174 31.9903C19.8009 31.8272 19.6898 31.6845 19.5088 31.6845C19.3566 31.6845 19.1839 31.8232 19.2003 31.9903Z" fill="#46A358"/>
<path d="M18.2008 34.2902C18.4394 34.6776 18.6122 35.0854 18.7192 35.5298C18.8138 35.9132 19.4062 35.7501 19.3156 35.3667C19.1964 34.8774 18.9989 34.4125 18.7356 33.9803C18.5258 33.6459 17.9951 33.9558 18.2008 34.2902Z" fill="#46A358"/>
<path d="M19.5171 36.8632C19.587 37.0345 19.6528 37.2017 19.7228 37.373C19.7845 37.5238 19.9284 37.6339 20.1012 37.585C20.2493 37.5442 20.381 37.3648 20.3151 37.2099C20.2452 37.0386 20.1794 36.8714 20.1095 36.7001C20.0477 36.5492 19.9038 36.4391 19.731 36.4881C19.587 36.5248 19.4554 36.7083 19.5171 36.8632Z" fill="#46A358"/>
</g>
<defs>
<clipPath id="clip0_11_3058">
<rect width="68" height="49" fill="white" transform="translate(0 38)"/>
</clipPath>
<clipPath id="clip1_11_3058">
<rect width="35" height="39" fill="white" transform="translate(16)"/>
</clipPath>
</defs>
</svg>
